<?xml version="1.0" ?><!DOCTYPE svg  PUBLIC '-//W3C//DTD SVG 1.1//EN'  'http://www.w3.org/Graphics/SVG/1.1/DTD/svg11.dtd'><svg enable-background="new 0 0 512 512" height="512px" id="Layer_1" version="1.1" viewBox="0 0 512 512" width="512px" xml:space="preserve" xmlns="http://www.w3.org/2000/svg" xmlns:xlink="http://www.w3.org/1999/xlink"><g><path d="M400,32H112c-44.18,0-80,35.82-80,80v288c0,44.18,35.82,80,80,80h288c44.18,0,80-35.82,80-80V112   C480,67.82,444.18,32,400,32z M224,344c0,4.422-3.578,8-8,8h-48c-4.422,0-8-3.578-8-8V168c0-4.422,3.578-8,8-8h48   c4.422,0,8,3.578,8,8V344z M352,344c0,4.422-3.578,8-8,8h-48c-4.422,0-8-3.578-8-8V168c0-4.422,3.578-8,8-8h48c4.422,0,8,3.578,8,8   V344z" fill="#4D4D4D"/></g></svg>