<?xml version="1.0" ?><!DOCTYPE svg  PUBLIC '-//W3C//DTD SVG 1.1//EN'  'http://www.w3.org/Graphics/SVG/1.1/DTD/svg11.dtd'><svg enable-background="new 0 0 512 512" height="512px" id="Layer_1" version="1.1" viewBox="0 0 512 512" width="512px" xml:space="preserve" xmlns="http://www.w3.org/2000/svg" xmlns:xlink="http://www.w3.org/1999/xlink"><g><path d="M400,32H112c-44.18,0-80,35.82-80,80v288c0,44.18,35.82,80,80,80h288c44.18,0,80-35.82,80-80V112   C480,67.82,444.18,32,400,32z M364.406,268.07l-167.82,101.234c-4.234,2.522-9.461,2.538-13.711,0.047   c-4.25-2.492-6.875-7.117-6.875-12.117V154.773c0-5,2.625-9.625,6.875-12.117c4.25-2.492,9.477-2.477,13.711,0.047l167.82,101.227   c4.203,2.5,6.797,7.102,6.797,12.07S368.617,265.57,364.406,268.07z" fill="#4D4D4D"/></g></svg>