<?xml version="1.0" ?><!DOCTYPE svg  PUBLIC '-//W3C//DTD SVG 1.1//EN'  'http://www.w3.org/Graphics/SVG/1.1/DTD/svg11.dtd'><svg enable-background="new 0 0 512 512" height="512px" id="Layer_1" version="1.1" viewBox="0 0 512 512" width="512px" xml:space="preserve" xmlns="http://www.w3.org/2000/svg" xmlns:xlink="http://www.w3.org/1999/xlink"><g><path d="M400,32H112c-44.18,0-80,35.82-80,80v288c0,44.18,35.82,80,80,80h288c44.188,0,80-35.82,80-80V112   C480,67.82,444.188,32,400,32z M352,340c0,6.625-5.375,12-12,12H172c-6.625,0-12-5.375-12-12V172c0-6.625,5.375-12,12-12h168   c6.625,0,12,5.375,12,12V340z" fill="#4D4D4D"/></g></svg>